<svg width="1230" height="964" viewBox="0 0 1230 964" fill="none" xmlns="http://www.w3.org/2000/svg">
<path d="M951.011 643.46C975.389 643.46 995.151 623.698 995.151 599.32C995.151 574.942 975.389 555.18 951.011 555.18C926.633 555.18 906.871 574.942 906.871 599.32C906.871 623.698 926.633 643.46 951.011 643.46Z" fill="#DADADA" stroke="#565656" stroke-width="3" stroke-miterlimit="10" stroke-linecap="round" stroke-linejoin="round"/>
<path d="M558.249 237.09C539.469 227.16 562.939 210.39 546.889 197.06C531.999 184.7 513.569 205.96 503.269 188.32C486.149 159.01 578.019 110.45 606.519 137.57C635.499 165.16 584.249 250.84 558.249 237.09Z" fill="#DADADA" stroke="#565656" stroke-width="3" stroke-miterlimit="10" stroke-linecap="round" stroke-linejoin="round"/>
<path d="M647.02 962C912.116 962 1127.02 747.097 1127.02 482C1127.02 216.903 912.116 2.00006 647.02 2.00006C381.923 2.00006 167.02 216.903 167.02 482C167.02 747.097 381.923 962 647.02 962Z" stroke="#565656" stroke-width="3" stroke-miterlimit="10" stroke-linecap="round" stroke-linejoin="round"/>
<path d="M947.654 499.719L731.957 466.37L726.543 501.386L942.24 534.734L947.654 499.719Z" fill="white" stroke="#565656" stroke-width="3" stroke-miterlimit="10" stroke-linecap="round" stroke-linejoin="round"/>
<path d="M1032.12 511.05L942 534.37L947.41 499.36L1037.53 476.04L1032.12 511.05Z" fill="white" stroke="#565656" stroke-width="3" stroke-miterlimit="10" stroke-linecap="round" stroke-linejoin="round"/>
<path d="M731.699 466.18L811.459 441.09L1037.53 476.04L947.409 499.36L731.699 466.18Z" fill="white" stroke="#565656" stroke-width="3" stroke-miterlimit="10" stroke-linecap="round" stroke-linejoin="round"/>
<path d="M930.54 459.42L1019.48 435.69L816.889 404.38L737.359 429.56L930.54 459.42Z" fill="#DADADA" stroke="#565656" stroke-width="3" stroke-miterlimit="10" stroke-linecap="round" stroke-linejoin="round"/>
<path d="M1013.8 472.45L924.43 496.11L930.11 459.35L1019.48 435.69L1013.8 472.45Z" fill="#DADADA" stroke="#565656" stroke-width="3" stroke-miterlimit="10" stroke-linecap="round" stroke-linejoin="round"/>
<path d="M930.782 459.778L737.6 429.91L731.917 466.665L925.1 496.533L930.782 459.778Z" fill="#DADADA" stroke="#565656" stroke-width="3" stroke-miterlimit="10" stroke-linecap="round" stroke-linejoin="round"/>
<path d="M936.25 422.45L1025.19 398.73L822.601 367.41L743.07 392.59L936.25 422.45Z" fill="#A7A5A5" stroke="#565656" stroke-width="3" stroke-miterlimit="10" stroke-linecap="round" stroke-linejoin="round"/>
<path d="M1019.51 435.48L930.139 459.15L935.819 422.39L1025.19 398.73L1019.51 435.48Z" fill="#A7A5A5" stroke="#565656" stroke-width="3" stroke-miterlimit="10" stroke-linecap="round" stroke-linejoin="round"/>
<path d="M936.493 422.816L743.311 392.948L737.628 429.703L930.811 459.571L936.493 422.816Z" fill="#A7A5A5" stroke="#565656" stroke-width="3" stroke-miterlimit="10" stroke-linecap="round" stroke-linejoin="round"/>
<path d="M1.74023 205.43C1.74023 205.43 203.49 295.8 217.49 316.3C231.49 336.8 208.88 370.72 208.99 394.3C209.09 415.53 223.18 435.3 210.99 443.92C197.69 453.34 70.0002 419.51 4.49023 405.3" stroke="#565656" stroke-width="3" stroke-miterlimit="10" stroke-linecap="round" stroke-linejoin="round"/>
<path d="M214.12 435.5C214.12 435.5 347.99 528.3 360.99 512.02C373.99 495.74 339.49 466.8 339.49 466.8C339.49 466.8 420.99 530.3 431.49 506.8C441.99 483.3 363.99 439.3 363.99 439.3C363.99 439.3 477.49 484.3 480.49 459.3C483.49 434.3 389.99 410.3 389.99 410.3C389.99 410.3 468.49 425.3 470.49 404.8C472.49 384.3 349.99 360.3 349.99 360.3C349.99 360.3 406.49 344.8 401.99 326.73C397.49 308.66 344.99 320.8 314.99 325.18C284.99 329.56 218.79 318.43 218.79 318.43C227.94 338.47 213.8 365.55 210 386.95C207.38 401.7 210.92 415.53 214.12 435.5Z" fill="white" stroke="#565656" stroke-width="3" stroke-miterlimit="10" stroke-linecap="round" stroke-linejoin="round"/>
<path d="M279.99 398.93C279.99 398.93 299.401 411.29 328.271 380.54" stroke="#565656" stroke-width="3" stroke-miterlimit="10" stroke-linecap="round" stroke-linejoin="round"/>
<path d="M629.76 124.3C678.86 108.05 717.93 107.78 728.97 126.9C745.59 155.69 692.37 217.53 610.11 265.02C527.85 312.52 447.68 327.68 431.06 298.89C421.47 282.29 435.12 254.69 464.17 225.19" stroke="#565656" stroke-width="3" stroke-miterlimit="10" stroke-linecap="round" stroke-linejoin="round"/>
<path d="M574.08 182.22C581.845 182.22 588.139 175.925 588.139 168.16C588.139 160.395 581.845 154.1 574.08 154.1C566.314 154.1 560.02 160.395 560.02 168.16C560.02 175.925 566.314 182.22 574.08 182.22Z" fill="white" stroke="#565656" stroke-width="3" stroke-miterlimit="10" stroke-linecap="round" stroke-linejoin="round"/>
<path d="M510.51 210.95L484.26 225.2" stroke="#565656" stroke-width="3" stroke-miterlimit="10" stroke-linecap="round" stroke-linejoin="round"/>
<path d="M528.46 223.55L510.51 246.57" stroke="#565656" stroke-width="3" stroke-miterlimit="10" stroke-linecap="round" stroke-linejoin="round"/>
<path d="M545.15 237.09L535.15 264.09" stroke="#565656" stroke-width="3" stroke-miterlimit="10" stroke-linecap="round" stroke-linejoin="round"/>
<path d="M600.14 478C643.334 478 678.35 442.984 678.35 399.79C678.35 356.596 643.334 321.58 600.14 321.58C556.945 321.58 521.93 356.596 521.93 399.79C521.93 442.984 556.945 478 600.14 478Z" fill="#A7A5A5" stroke="#565656" stroke-width="3" stroke-miterlimit="10" stroke-linecap="round" stroke-linejoin="round"/>
<path d="M271.609 522.71C271.609 522.71 303.13 546.27 304.02 549.33C304.9 552.33 293.92 564.09 295.27 566.58C296.86 569.52 310 568.35 310.77 570.33C311.68 572.64 300.77 578.08 303.02 581.33C305.27 584.58 321.02 598.33 319.27 600.83C317.52 603.33 297.27 616.33 297.27 616.33" stroke="#565656" stroke-width="3" stroke-miterlimit="10" stroke-linecap="round" stroke-linejoin="round"/>
<path d="M698.389 291.45L693.27 316.2C693.27 316.2 713.02 314.08 716.02 314.82C719.02 315.56 715.27 326.57 717.52 328.32C719.77 330.07 729.759 323.57 732.009 324.57C734.259 325.57 732.009 342.82 732.009 342.82" stroke="#565656" stroke-width="3" stroke-miterlimit="10" stroke-linecap="round" stroke-linejoin="round"/>
<path d="M795.75 235.13C795.75 235.13 747.32 232.89 748.64 266.83C749.52 289.5 793.6 277.87 794.76 285.58C796.82 299.27 756.79 298.61 751.17 299.55C747.47 300.17 750.7 310.4 752.86 310.05C755.89 309.56 815.58 308.46 810.8 282.39C806.95 261.43 767.58 279.77 767.04 265.32C766.43 249.02 795.48 252.77 795.48 252.77L795.75 235.13Z" fill="white" stroke="#565656" stroke-width="3" stroke-miterlimit="10" stroke-linecap="round" stroke-linejoin="round"/>
<path d="M780.139 228.95L772.449 326.82" stroke="#565656" stroke-width="3" stroke-miterlimit="10" stroke-linecap="round" stroke-linejoin="round"/>
<path d="M787.26 228.95L780.25 326.82" stroke="#565656" stroke-width="3" stroke-miterlimit="10" stroke-linecap="round" stroke-linejoin="round"/>
<path d="M574.97 410.96C574.97 410.96 573.02 401.51 577.76 398.9C582.5 396.3 593.83 400.28 593.83 400.28C593.83 400.28 592.4 389.12 598.77 385.15C605.13 381.18 614.46 386.5 614.46 386.5C614.46 386.5 613.67 378.15 618.16 375.53C622.65 372.9 631.45 381.44 631.45 381.44" stroke="#565656" stroke-width="3" stroke-miterlimit="10" stroke-linecap="round" stroke-linejoin="round"/>
<path d="M550.791 379.78L560.721 389.82" stroke="#565656" stroke-width="3" stroke-miterlimit="10" stroke-linecap="round" stroke-linejoin="round"/>
<path d="M583.961 353.02L590.811 368.16" stroke="#565656" stroke-width="3" stroke-miterlimit="10" stroke-linecap="round" stroke-linejoin="round"/>
<path d="M622.811 341.8L621.4 358.24" stroke="#565656" stroke-width="3" stroke-miterlimit="10" stroke-linecap="round" stroke-linejoin="round"/>
<path d="M1088.76 33.95L976.26 123.95L1114.64 209.07L1228.26 140.82" stroke="#565656" stroke-width="3" stroke-miterlimit="10" stroke-linecap="round" stroke-linejoin="round"/>
<path d="M985.21 129.45C985.21 129.45 908.76 186.57 893.76 209.07C878.76 231.57 842.26 310.05 842.26 331.07C842.26 354.43 866.01 408.57 876.51 406.32C887.01 404.07 871.26 340.32 876.51 328.32C881.76 316.32 906.51 286.82 920.01 291.45C933.51 296.08 923.76 354.82 941.76 356.57C959.76 358.32 957.51 298.32 964.26 285.57C971.01 272.82 975.51 278.13 978.51 254.57C980.26 240.82 1100.55 200.41 1100.55 200.41L985.21 129.45Z" fill="white" stroke="#565656" stroke-width="3" stroke-miterlimit="10" stroke-linecap="round" stroke-linejoin="round"/>
<path d="M876.56 353.87C876.56 353.87 926.77 400.29 933.51 390.39C937.89 383.95 894.76 333.33 885.39 314.55C878.44 324.6 872.39 326.95 876.56 353.87Z" fill="white" stroke="#565656" stroke-width="3" stroke-miterlimit="10" stroke-linecap="round" stroke-linejoin="round"/>
<path d="M885.4 314.54C885.4 314.54 926.39 381.57 935.8 370.56C939.99 365.66 901.07 325.69 902.74 297.12C894.13 304.68 885.4 314.54 885.4 314.54Z" fill="white" stroke="#565656" stroke-width="3" stroke-miterlimit="10" stroke-linecap="round" stroke-linejoin="round"/>
<path d="M928.08 313.6C928.45 360.76 946.14 359.96 942.29 364.64C937.23 370.82 921.34 345.22 912.01 328.08C902.75 311.07 903.54 307.29 902.75 297.12C902.75 297.12 916.7 286.37 922.11 292.82C925.45 296.82 928 303.24 928.08 313.6Z" fill="white" stroke="#565656" stroke-width="3" stroke-miterlimit="10" stroke-linecap="round" stroke-linejoin="round"/>
<path d="M527.102 666.36C552.921 666.36 573.852 645.429 573.852 619.61C573.852 593.791 552.921 572.86 527.102 572.86C501.282 572.86 480.352 593.791 480.352 619.61C480.352 645.429 501.282 666.36 527.102 666.36Z" stroke="#565656" stroke-width="3" stroke-miterlimit="10" stroke-linecap="round" stroke-linejoin="round"/>
<path d="M527.101 652.72C545.387 652.72 560.21 637.896 560.21 619.61C560.21 601.324 545.387 586.5 527.101 586.5C508.814 586.5 493.99 601.324 493.99 619.61C493.99 637.896 508.814 652.72 527.101 652.72Z" stroke="#565656" stroke-width="3" stroke-miterlimit="10" stroke-linecap="round" stroke-linejoin="round"/>
<path d="M527.101 635.73C536.003 635.73 543.22 628.513 543.22 619.61C543.22 610.707 536.003 603.49 527.101 603.49C518.198 603.49 510.98 610.707 510.98 619.61C510.98 628.513 518.198 635.73 527.101 635.73Z" fill="#565656" stroke="#565656" stroke-width="3" stroke-miterlimit="10" stroke-linecap="round" stroke-linejoin="round"/>
<path d="M448.4 598.6L527.44 620.1" stroke="#565656" stroke-width="3" stroke-miterlimit="10" stroke-linecap="round" stroke-linejoin="round"/>
<path d="M472.341 604.59L458.201 617.34L434.881 611.13L446.711 598.2L441.601 582.02L464.921 588.22L472.341 604.59Z" stroke="#565656" stroke-width="3" stroke-miterlimit="10" stroke-linecap="round" stroke-linejoin="round"/>
<path d="M437.72 647.44L403.26 685.07L302.76 703.07L421.26 807.57L436.23 717.57L472.51 676.07L437.72 647.44Z" fill="#DADADA" stroke="#565656" stroke-width="3" stroke-miterlimit="10" stroke-linecap="round" stroke-linejoin="round"/>
<path d="M317.15 707.82L414.76 793.32L422.76 734.57L375.82 696.63L317.15 707.82Z" fill="white" stroke="#565656" stroke-width="3" stroke-miterlimit="10" stroke-linecap="round" stroke-linejoin="round"/>
<path d="M349.01 718.82C349.01 718.82 362.76 724.57 371.76 736.07C380.76 747.57 394.51 747.57 398.01 751.82C401.51 756.07 401.01 760.82 405.26 763.57" stroke="#565656" stroke-width="3" stroke-miterlimit="10" stroke-linecap="round" stroke-linejoin="round"/>
<path d="M387.641 723.57C387.641 723.57 391.521 723.82 394.261 726.07C397.001 728.32 397.261 734.07 404.011 735.57" stroke="#565656" stroke-width="3" stroke-miterlimit="10" stroke-linecap="round" stroke-linejoin="round"/>
<path d="M479.361 848.64C494.168 848.64 506.171 836.637 506.171 821.83C506.171 807.023 494.168 795.02 479.361 795.02C464.554 795.02 452.551 807.023 452.551 821.83C452.551 836.637 464.554 848.64 479.361 848.64Z" stroke="#565656" stroke-width="3" stroke-miterlimit="10" stroke-linecap="round" stroke-linejoin="round"/>
<path d="M497.44 812.15C499.09 815 500.04 818.31 500.04 821.83C500.04 832.5 491.39 841.15 480.72 841.15C471.95 841.15 464.54 835.3 462.18 827.3" stroke="#565656" stroke-width="3" stroke-miterlimit="10" stroke-linecap="round" stroke-linejoin="round"/>
<path d="M497.44 812.15C497.44 812.15 484.53 807.62 487.59 804.2C491.39 799.95 497.44 812.15 497.44 812.15Z" stroke="#565656" stroke-width="3" stroke-miterlimit="10" stroke-linecap="round" stroke-linejoin="round"/>
<path d="M462.181 827.3C462.181 827.3 455.981 814.94 461.391 814.42C466.221 813.95 462.181 827.3 462.181 827.3Z" stroke="#565656" stroke-width="3" stroke-miterlimit="10" stroke-linecap="round" stroke-linejoin="round"/>
<path d="M477.891 806.82L469.141 820.07" stroke="#565656" stroke-width="3" stroke-miterlimit="10" stroke-linecap="round" stroke-linejoin="round"/>
<path d="M481.891 812.15L474.141 824.7" stroke="#565656" stroke-width="3" stroke-miterlimit="10" stroke-linecap="round" stroke-linejoin="round"/>
<path d="M486.281 816.86L478.531 829.41" stroke="#565656" stroke-width="3" stroke-miterlimit="10" stroke-linecap="round" stroke-linejoin="round"/>
<path d="M472.51 839.33L471.26 830.2" stroke="#565656" stroke-width="3" stroke-miterlimit="10" stroke-linecap="round" stroke-linejoin="round"/>
<path d="M496.761 832.61L493.141 824.7" stroke="#565656" stroke-width="3" stroke-miterlimit="10" stroke-linecap="round" stroke-linejoin="round"/>
<path d="M584.51 845.57C663.26 813.82 613.26 777.07 589.26 761.07C565.26 745.07 562.26 723.57 562.26 723.57L540.76 735.57C540.76 735.57 543.32 759.95 560.51 774.82C577.83 789.81 620.76 812.83 580.76 839.33" stroke="#565656" stroke-width="3" stroke-miterlimit="10" stroke-linecap="round" stroke-linejoin="round"/>
<path d="M747.89 630.44H637.43L671.66 566.45H782.12L747.89 630.44Z" stroke="#565656" stroke-width="3" stroke-miterlimit="10" stroke-linecap="round" stroke-linejoin="round"/>
<path d="M671.709 579.14C678.718 579.14 684.399 573.459 684.399 566.45C684.399 559.442 678.718 553.76 671.709 553.76C664.701 553.76 659.02 559.442 659.02 566.45C659.02 573.459 664.701 579.14 671.709 579.14Z" fill="white" stroke="#565656" stroke-width="3" stroke-miterlimit="10" stroke-linecap="round" stroke-linejoin="round"/>
<path d="M782.12 583.49C791.531 583.49 799.16 575.861 799.16 566.45C799.16 557.039 791.531 549.41 782.12 549.41C772.709 549.41 765.08 557.039 765.08 566.45C765.08 575.861 772.709 583.49 782.12 583.49Z" fill="#DADADA" stroke="#565656" stroke-width="3" stroke-miterlimit="10" stroke-linecap="round" stroke-linejoin="round"/>
<path d="M637.43 645.81C645.919 645.81 652.8 638.929 652.8 630.44C652.8 621.952 645.919 615.07 637.43 615.07C628.942 615.07 622.061 621.952 622.061 630.44C622.061 638.929 628.942 645.81 637.43 645.81Z" fill="white" stroke="#565656" stroke-width="3" stroke-miterlimit="10" stroke-linecap="round" stroke-linejoin="round"/>
<path d="M748.389 647.13C757.607 647.13 765.08 639.658 765.08 630.44C765.08 621.222 757.607 613.75 748.389 613.75C739.172 613.75 731.699 621.222 731.699 630.44C731.699 639.658 739.172 647.13 748.389 647.13Z" fill="#565656" stroke="#565656" stroke-width="3" stroke-miterlimit="10" stroke-linecap="round" stroke-linejoin="round"/>
<path d="M675.709 466.151L611.855 499.661L619.56 514.342L683.414 480.832L675.709 466.151Z" fill="#565656" stroke="#565656" stroke-width="3" stroke-miterlimit="10" stroke-linecap="round" stroke-linejoin="round"/>
<path d="M683.418 480.829L619.564 514.339L627.269 529.02L691.123 495.511L683.418 480.829Z" fill="#A7A5A5" stroke="#565656" stroke-width="3" stroke-miterlimit="10" stroke-linecap="round" stroke-linejoin="round"/>
<path d="M679.671 502.068L639.168 523.323L646.873 538.005L687.375 516.749L679.671 502.068Z" fill="white" stroke="#565656" stroke-width="3" stroke-miterlimit="10" stroke-linecap="round" stroke-linejoin="round"/>
<path d="M950.199 153.76C939.869 165.74 977.389 220.88 1022.89 231.82" stroke="#565656" stroke-width="3" stroke-miterlimit="10" stroke-linecap="round" stroke-linejoin="round"/>
<path d="M943.451 159.57C927.891 168.01 981.621 243.02 1010.76 237.19" stroke="#565656" stroke-width="3" stroke-miterlimit="10" stroke-linecap="round" stroke-linejoin="round"/>
<path d="M968.62 138.7C961.02 137.95 957.25 146.82 975.76 166.57" stroke="#565656" stroke-width="3" stroke-miterlimit="10" stroke-linecap="round" stroke-linejoin="round"/>
<path d="M1009.51 198.96C1009.51 198.96 1029.08 218.07 1048.65 219.07" stroke="#565656" stroke-width="3" stroke-miterlimit="10" stroke-linecap="round" stroke-linejoin="round"/>
<path d="M978.979 179.13C982.448 179.13 985.259 176.318 985.259 172.85C985.259 169.382 982.448 166.57 978.979 166.57C975.511 166.57 972.699 169.382 972.699 172.85C972.699 176.318 975.511 179.13 978.979 179.13Z" fill="#565656" stroke="#565656" stroke-width="3" stroke-miterlimit="10" stroke-linecap="round" stroke-linejoin="round"/>
<path d="M1008.79 205.24C1012.26 205.24 1015.07 202.428 1015.07 198.96C1015.07 195.492 1012.26 192.68 1008.79 192.68C1005.32 192.68 1002.51 195.492 1002.51 198.96C1002.51 202.428 1005.32 205.24 1008.79 205.24Z" fill="#565656" stroke="#565656" stroke-width="3" stroke-miterlimit="10" stroke-linecap="round" stroke-linejoin="round"/>
<path d="M951.01 635.6C971.218 635.6 987.6 619.218 987.6 599.01C987.6 578.802 971.218 562.42 951.01 562.42C930.802 562.42 914.42 578.802 914.42 599.01C914.42 619.218 930.802 635.6 951.01 635.6Z" fill="white" stroke="#565656" stroke-width="3" stroke-miterlimit="10" stroke-linecap="round" stroke-linejoin="round"/>
<path d="M956.719 635.15L960.01 622.32L953.26 611.82L944.01 615.32L938.76 608.32C938.76 608.32 934.26 608.32 933.76 607.07C933.26 605.82 936.51 601.06 935.76 598.44C935.01 595.82 930.26 596.82 930.51 593.07C930.76 589.32 931.45 585.89 932.51 583.48C934.91 578.02 944.26 575.07 956.26 581.32C968.26 587.57 974.51 613.75 974.51 613.75L968.51 630.44" fill="white"/>
<path d="M956.719 635.15L960.01 622.32L953.26 611.82L944.01 615.32L938.76 608.32C938.76 608.32 934.26 608.32 933.76 607.07C933.26 605.82 936.51 601.06 935.76 598.44C935.01 595.82 930.26 596.82 930.51 593.07C930.76 589.32 931.45 585.89 932.51 583.48C934.91 578.02 944.26 575.07 956.26 581.32C968.26 587.57 974.51 613.75 974.51 613.75L968.51 630.44" stroke="#565656" stroke-width="3" stroke-miterlimit="10" stroke-linecap="round" stroke-linejoin="round"/>
<path d="M949.451 572.26C945.821 571.44 938.651 576.37 935.391 577.14C931.551 578.04 932.201 586.52 938.951 586.89C945.701 587.26 949.571 585.58 951.011 588.2C952.451 590.82 950.131 598.44 952.511 599.32C954.891 600.2 957.701 595.7 959.581 596.45C961.461 597.2 961.071 601.09 964.831 599.01C968.591 596.93 973.281 579.09 964.831 575.26C960.831 573.45 959.581 575.88 956.581 575.64C953.561 575.38 951.951 572.82 949.451 572.26Z" fill="#565656" stroke="#565656" stroke-width="3" stroke-miterlimit="10" stroke-linecap="round" stroke-linejoin="round"/>
<path d="M953.26 611.82L958.87 609.52" stroke="#565656" stroke-width="3" stroke-miterlimit="10" stroke-linecap="round" stroke-linejoin="round"/>
<path d="M949.359 635.15L953.259 622.88" stroke="#565656" stroke-width="3" stroke-miterlimit="10" stroke-linecap="round" stroke-linejoin="round"/>
<path d="M974.51 613.75L978.51 602.07" stroke="#565656" stroke-width="3" stroke-miterlimit="10" stroke-linecap="round" stroke-linejoin="round"/>
<path d="M899.389 957.2C899.389 957.2 765.889 785.83 750.889 774.2C735.889 762.57 652.809 694.33 670.639 671.45C687.669 649.6 737.36 711.26 765.08 725.45C787.18 736.77 810.189 723.57 858.259 691.07C894.279 666.72 904.849 660.45 911.259 668.65C922.509 683.07 875.029 700.66 878.259 733.82C882.859 781.12 1019.76 880.07 1019.76 880.07" fill="white"/>
<path d="M899.389 957.2C899.389 957.2 765.889 785.83 750.889 774.2C735.889 762.57 652.809 694.33 670.639 671.45C687.669 649.6 737.36 711.26 765.08 725.45C787.18 736.77 810.189 723.57 858.259 691.07C894.279 666.72 904.849 660.45 911.259 668.65C922.509 683.07 875.029 700.66 878.259 733.82C882.859 781.12 1019.76 880.07 1019.76 880.07" stroke="#565656" stroke-width="3" stroke-miterlimit="10" stroke-linecap="round" stroke-linejoin="round"/>
<path d="M782.12 776.07C782.12 776.07 744.88 687.89 762.77 678.07C779.96 668.63 843.27 756.82 846.77 830.19" fill="white"/>
<path d="M782.12 776.07C782.12 776.07 744.88 687.89 762.77 678.07C779.96 668.63 843.27 756.82 846.77 830.19" stroke="#565656" stroke-width="3" stroke-miterlimit="10" stroke-linecap="round" stroke-linejoin="round"/>
<path d="M845.1 888.12C845.1 888.12 908.81 841.53 940.81 815.78L974.759 845.08C974.759 845.08 905.96 906.8 878.75 930.81L845.1 888.12Z" fill="#A7A5A5" stroke="#565656" stroke-width="3" stroke-miterlimit="10" stroke-linecap="round" stroke-linejoin="round"/>
<path d="M817.58 736.44C824.76 689.26 837.389 668.93 849.759 644.29C856.799 630.27 854.379 602.07 836.859 610.67C799.979 628.78 787.02 692.02 787.02 692.02L817.58 736.44Z" fill="white" stroke="#565656" stroke-width="3" stroke-miterlimit="10" stroke-linecap="round" stroke-linejoin="round"/>
<path d="M817.58 736.44C819.26 704.57 854.46 622.26 865.26 635.6C878.01 651.35 842.38 725.45 842.38 725.45" fill="white"/>
<path d="M817.58 736.44C819.26 704.57 854.46 622.26 865.26 635.6C878.01 651.35 842.38 725.45 842.38 725.45" stroke="#565656" stroke-width="3" stroke-miterlimit="10" stroke-linecap="round" stroke-linejoin="round"/>
<path d="M845.139 887.73L879.139 930.83L870.519 937.67C865.329 941.79 857.779 940.92 853.659 935.73L834.579 911.43C830.459 906.24 831.329 898.69 836.519 894.57L845.139 887.73Z" fill="#565656" stroke="#565656" stroke-width="3" stroke-miterlimit="10" stroke-linecap="round" stroke-linejoin="round"/>
<path d="M831.98 731.82C831.98 731.82 849.39 719.84 863.38 723.57Z" fill="white"/>
<path d="M831.98 731.82C831.98 731.82 849.39 719.84 863.38 723.57" stroke="#565656" stroke-width="3" stroke-miterlimit="10" stroke-linecap="round" stroke-linejoin="round"/>
<path d="M586.211 423.2L612.651 447.53" stroke="#565656" stroke-width="3" stroke-miterlimit="10" stroke-linecap="round" stroke-linejoin="round"/>
<path d="M633.4 398.46L638.92 433.96" stroke="#565656" stroke-width="3" stroke-miterlimit="10" stroke-linecap="round" stroke-linejoin="round"/>
</svg>
