<?xml version="1.0" encoding="UTF-8"?>
<svg xmlns="http://www.w3.org/2000/svg" xmlns:xlink="http://www.w3.org/1999/xlink" viewBox="0 0 90 90" width="90px" height="90px">
<g id="surface59173764">
<path style=" stroke:none;fill-rule:nonzero;fill:rgb(40.000001%,40.000001%,40.000001%);fill-opacity:1;" d="M 45 9 C 36.09375 9 27.910156 12.25 21.621094 17.625 C 20.761719 18.308594 20.347656 19.40625 20.535156 20.484375 C 20.722656 21.566406 21.484375 22.457031 22.523438 22.8125 C 23.5625 23.167969 24.710938 22.925781 25.515625 22.183594 C 30.761719 17.699219 37.550781 15 45 15 C 60.589844 15 73.351562 26.8125 74.851562 42 L 66 42 L 78 60 L 90 42 L 80.847656 42 C 79.3125 23.554688 63.832031 9 45 9 Z M 12 30 L 0 48 L 9.152344 48 C 10.6875 66.445312 26.167969 81 45 81 C 53.90625 81 62.089844 77.75 68.378906 72.375 C 69.238281 71.691406 69.652344 70.59375 69.464844 69.515625 C 69.277344 68.433594 68.515625 67.542969 67.476562 67.1875 C 66.4375 66.832031 65.289062 67.074219 64.484375 67.816406 C 59.238281 72.300781 52.449219 75 45 75 C 29.410156 75 16.648438 63.1875 15.144531 48 L 24 48 Z M 12 30 "/>
</g>
</svg>
