<svg width="84" height="24" viewBox="0 0 84 24" fill="none" xmlns="http://www.w3.org/2000/svg">
<path d="M0.75 0.649999V18.5H3.675V6.2H3.775L9.025 18.5H11.55L16.8 6.2H16.9V18.5H19.825V0.649999H16.4L10.35 14.65H10.25L4.175 0.649999H0.75ZM25.008 0.299999C24.458 0.299999 24.008 0.475 23.633 0.825C23.258 1.175 23.083 1.625 23.083 2.175C23.083 2.725 23.258 3.175 23.633 3.55C24.008 3.9 24.458 4.075 25.008 4.075C25.558 4.075 26.008 3.9 26.383 3.55C26.758 3.2 26.958 2.725 26.958 2.175C26.958 1.625 26.758 1.175 26.408 0.825C26.033 0.475 25.558 0.299999 25.008 0.299999ZM23.583 5.575V18.5H26.433V5.575H23.583ZM36.6428 5.225C35.8678 5.225 35.1678 5.375 34.5178 5.7C33.8928 6 33.3178 6.475 32.8178 7.075V5.575H29.9678V18.5H32.8178V10.725C32.9178 9.7 33.2678 8.9 33.8678 8.35C34.3928 7.85 35.0178 7.6 35.7178 7.6C37.6678 7.6 38.6428 8.65 38.6428 10.775V18.5H41.4928V10.525C41.4928 6.975 39.8678 5.225 36.6428 5.225ZM49.8691 5.225C48.1191 5.225 46.6941 5.825 45.6191 7.025C44.5191 8.225 43.9941 9.8 43.9941 11.75C43.9941 13.7 44.5191 15.275 45.6191 16.45C46.6941 17.6 48.1191 18.2 49.8691 18.2C51.4691 18.2 52.7441 17.525 53.6941 16.2V18.1C53.6941 20.4 52.6191 21.55 50.4691 21.55C49.4691 21.55 48.7441 21.4 48.2941 21.125C47.8191 20.825 47.5191 20.325 47.3691 19.6H44.5191C44.7691 21.05 45.3691 22.1 46.3191 22.8C47.2691 23.45 48.6441 23.8 50.4691 23.8C54.5191 23.8 56.5441 21.75 56.5441 17.675V5.575H53.6941V7.15C52.7441 5.85 51.4691 5.225 49.8691 5.225ZM50.3191 7.525C51.3941 7.525 52.2441 7.9 52.8441 8.65C53.4191 9.4 53.7191 10.425 53.7191 11.75C53.7191 13.05 53.4191 14.05 52.8441 14.8C52.2441 15.5 51.3941 15.875 50.2941 15.875C49.0441 15.875 48.1691 15.45 47.6191 14.625C47.1441 13.925 46.9191 12.975 46.9191 11.75C46.9191 10.4 47.2191 9.375 47.8191 8.65C48.4191 7.9 49.2441 7.525 50.3191 7.525ZM59.7832 0.299999V18.5H62.6332V0.299999H59.7832ZM71.3809 5.225C69.4559 5.225 67.9309 5.875 66.8309 7.2C65.6809 8.5 65.1309 10.1 65.1309 12.025C65.1309 14.175 65.7309 15.85 66.9309 17.075C68.0559 18.25 69.5809 18.85 71.5059 18.85C73.2309 18.85 74.6559 18.35 75.8059 17.375C76.7059 16.575 77.3059 15.55 77.6059 14.35H74.7559C74.4059 15.075 74.0309 15.6 73.6059 15.925C73.0559 16.325 72.3559 16.525 71.4809 16.525C70.4559 16.525 69.6559 16.2 69.1059 15.575C68.5559 14.95 68.2309 14.025 68.1309 12.825H77.8059C77.8059 10.5 77.2809 8.675 76.2559 7.375C75.1309 5.925 73.5059 5.225 71.3809 5.225ZM71.4559 7.55C73.4559 7.55 74.5809 8.575 74.8309 10.675H68.1809C68.3559 9.65 68.7059 8.875 69.2309 8.35C69.7809 7.8 70.5059 7.55 71.4559 7.55ZM81.9904 14.725C81.4404 14.725 80.9654 14.9 80.6154 15.3C80.2154 15.675 80.0404 16.15 80.0404 16.7C80.0404 17.25 80.2154 17.7 80.6154 18.1C80.9654 18.45 81.4404 18.65 81.9904 18.65C82.5404 18.65 82.9904 18.45 83.3904 18.1C83.7654 17.7 83.9654 17.25 83.9654 16.7C83.9654 16.15 83.7654 15.675 83.3904 15.3C82.9904 14.9 82.5404 14.725 81.9904 14.725Z" fill="#54B944"/>
</svg>
